<svg width="15" height="14" viewBox="0 0 15 14" fill="none" xmlns="http://www.w3.org/2000/svg">
<path fill-rule="evenodd" clip-rule="evenodd" d="M3.46081 14H0.330078V5H3.46081V14Z" fill="#0A142F"/>
<path fill-rule="evenodd" clip-rule="evenodd" d="M1.88614 3H1.86835C0.934073 3 0.330078 2.33303 0.330078 1.49948C0.330078 0.648306 0.952468 0 1.90448 0C2.85648 0 3.44275 0.648306 3.46081 1.49948C3.46081 2.33303 2.85648 3 1.88614 3Z" fill="#0A142F"/>
<path fill-rule="evenodd" clip-rule="evenodd" d="M14.9409 13.9998H11.8645V9.29535C11.8645 8.11371 11.4193 7.30738 10.3056 7.30738C9.45565 7.30738 8.94938 7.85096 8.72703 8.37598C8.64569 8.56414 8.62572 8.8263 8.62572 9.08911V14H5.54883C5.54883 14 5.58938 6.03183 5.54883 5.20672H8.62572V6.45221C9.03405 5.85348 9.76536 5 11.3988 5C13.4233 5 14.941 6.25705 14.941 8.95797L14.9409 13.9998Z" fill="#0A142F"/>
</svg>
