<svg width="15" height="11" viewBox="0 0 15 11" fill="none" xmlns="http://www.w3.org/2000/svg">
<path fill-rule="evenodd" clip-rule="evenodd" d="M7.22697 2.92617L7.25637 3.40195L6.76624 3.34369C4.98218 3.12037 3.42357 2.363 2.10023 1.09102L1.45326 0.459879L1.28662 0.92595C0.933725 1.9649 1.15918 3.06211 1.89438 3.80006C2.28648 4.20787 2.19825 4.26613 1.52188 4.02338C1.28662 3.9457 1.08076 3.88744 1.06116 3.91657C0.99254 3.98454 1.2278 4.86814 1.41405 5.21769C1.66892 5.70318 2.18845 6.17896 2.757 6.46055L3.23733 6.68387L2.66878 6.69358C2.11983 6.69358 2.10023 6.70329 2.15904 6.9072C2.3551 7.53834 3.1295 8.20831 3.99212 8.49961L4.59988 8.70351L4.07054 9.01423C3.28634 9.46088 2.3649 9.71333 1.44346 9.73275C1.00234 9.74246 0.639648 9.7813 0.639648 9.81043C0.639648 9.90753 1.83556 10.4513 2.53154 10.6649C4.61949 11.296 7.09953 11.0242 8.96202 9.94637C10.2854 9.17929 11.6087 7.65485 12.2263 6.17896C12.5596 5.39247 12.8928 3.95541 12.8928 3.26602C12.8928 2.81936 12.9222 2.7611 13.4712 2.22707C13.7947 1.91635 14.0986 1.57651 14.1574 1.47941C14.2554 1.29492 14.2456 1.29492 13.7457 1.45999C12.9124 1.75128 12.7948 1.71245 13.2065 1.2755C13.5104 0.964789 13.8731 0.40162 13.8731 0.236553C13.8731 0.207424 13.7261 0.255973 13.5594 0.343361C13.383 0.440459 12.9909 0.586106 12.6968 0.673494L12.1675 0.838562L11.6871 0.518138C11.4225 0.343361 11.05 0.149165 10.8539 0.0909061C10.354 -0.0450315 9.58938 -0.0256119 9.13846 0.129745C7.91314 0.566688 7.13874 1.69303 7.22697 2.92617Z" fill="#0A142F"/>
</svg>
